PathFileType	4	(X/Y/Z)	./resultDataOpenSim/trcMotMarkerGrf/sub10/qtm-05-07.trc
DataRate	CameraRate	NumFrames	NumMarkers	Units	OrigDataRate	OrigDataStartFrame	OrigNumFrames
250.000000	250.000000	10	24	m	250.000000	65	513
Frame#	Time	L.Toe.Tip			R.Toe.Tip			L.Ankle.Lat			R.Ankle.Lat			L.Ankle.Med			R.Ankle.Med			L.Heel			R.Heel			L.Knee.Lat			R.Knee.Lat			L.Knee.Med			R.Knee.Med			L.Thigh.Upper			R.Thigh.Upper			L.ASIS			R.ASIS			V.Sacral			L.Acromium			R.Acromium			C7			L.Elbow			R.Elbow			L.Wrist.Lat			R.Wrist.Lat
		X1	Y1	Z1	X2	Y2	Z2	X3	Y3	Z3	X4	Y4	Z4	X5	Y5	Z5	X6	Y6	Z6	X7	Y7	Z7	X8	Y8	Z8	X9	Y9	Z9	X10	Y10	Z10	X11	Y11	Z11	X12	Y12	Z12	X13	Y13	Z13	X14	Y14	Z14	X15	Y15	Z15	X16	Y16	Z16	X17	Y17	Z17	X18	Y18	Z18	X19	Y19	Z19	X20	Y20	Z20	X21	Y21	Z21	X22	Y22	Z22	X23	Y23	Z23	X24	Y24	Z24

65	0.256	-1.3748126	0.077588431	-0.13919562	-0.70121957	0.039354249	0.045906159	-1.3581578	0.21479347	-0.16691395	-0.84500578	0.053725952	0.07639531	-1.3281406	0.2048514	-0.089961078	-0.82220685	0.079570861	-0.0068177391	-1.3887772	0.26483334	-0.11167911	-0.89296678	0.029402515	0.026705455	-1.0369623	0.41156997	-0.19263864	-0.80171838	0.4484147	0.11083232	-1.0164696	0.36588025	-0.081076516	-0.79768971	0.4586921	-0.017349824	-0.97906313	0.7835275	-0.20456982	-0.91681489	0.84972877	0.17394814	-0.90597221	0.89308066	-0.1496654	-0.86588257	0.92958048	0.086214646	-1.0859953	0.92796314	-0.0018360058	-0.92856252	1.3938278	-0.16881221	-0.96486106	1.3771184	0.14844611	-1.0253968	1.4136233	-0.020758405	-1.0207936	1.0589456	-0.25324283	-1.134091	1.0836033	0.16201725	-0.81048937	0.92299979	-0.2170663	-1.1526777	0.86057781	0.25212206
66	0.26	-1.3643336	0.079895859	-0.13974811	-0.70118065	0.039324158	0.045933065	-1.3475994	0.21723093	-0.16714295	-0.8450657	0.053728437	0.076428986	-1.3176844	0.20701987	-0.090140239	-0.82204104	0.079567323	-0.0067984632	-1.3783382	0.26722381	-0.11190749	-0.89298631	0.029431252	0.026721489	-1.0255291	0.412016	-0.19256015	-0.79945851	0.44833198	0.11139057	-1.0052596	0.36699809	-0.080858794	-0.79488599	0.45844324	-0.017052008	-0.97265631	0.78461069	-0.20442563	-0.91202363	0.84997144	0.17420244	-0.90079724	0.89422974	-0.14995573	-0.86036308	0.92998212	0.086535525	-1.080672	0.92862605	-0.0018097115	-0.92335684	1.3947814	-0.16860336	-0.95888445	1.378017	0.1487188	-1.0199584	1.4146885	-0.020212691	-1.0165669	1.0602362	-0.25288886	-1.1271188	1.083932	0.16341177	-0.80795925	0.92176101	-0.21757288	-1.1449853	0.8607887	0.25299224
67	0.264	-1.3533817	0.08190329	-0.14018129	-0.70116066	0.039301951	0.045977138	-1.3368765	0.21951403	-0.16737075	-0.84511254	0.053726116	0.076464145	-1.3071223	0.20920196	-0.090291507	-0.8218961	0.079563625	-0.0067712794	-1.3680853	0.26948933	-0.11259474	-0.89300499	0.029461987	0.026735787	-1.014043	0.41257173	-0.19247183	-0.79717644	0.44820913	0.11182321	-0.99377663	0.36820348	-0.080653722	-0.79196321	0.45819295	-0.016801086	-0.96643883	0.78571175	-0.20428732	-0.90730999	0.85021547	0.174462	-0.89567915	0.89546939	-0.15031067	-0.85490737	0.93040022	0.086866548	-1.0755386	0.92931691	-0.0020634022	-0.91821197	1.39576	-0.16839356	-0.95296433	1.3789573	0.1489946	-1.0145539	1.4157462	-0.019711764	-1.0123118	1.0615517	-0.25256111	-1.1203436	1.084251	0.16457937	-0.8055593	0.92052629	-0.21812063	-1.1371164	0.8609885	0.25389182
68	0.268	-1.341826	0.083728341	-0.14064492	-0.70115729	0.039285147	0.046036869	-1.3259714	0.22162492	-0.16759281	-0.84514993	0.053720767	0.076496766	-1.296424	0.21137097	-0.090420786	-0.82177234	0.079560388	-0.0067380793	-1.3580238	0.27161095	-0.11370771	-0.89302317	0.02949507	0.026744318	-1.0025336	0.41322431	-0.19237363	-0.79497168	0.44807812	0.11210584	-0.98199724	0.36947429	-0.080470825	-0.78903442	0.45794489	-0.016582872	-0.9604362	0.78683645	-0.2041301	-0.90267655	0.85048683	0.17472927	-0.89038057	0.89686755	-0.15059884	-0.84952724	0.93085327	0.087222319	-1.0704854	0.93003359	-0.0024186035	-0.91312462	1.3967596	-0.16818294	-0.94710397	1.3799372	0.14928091	-1.0091846	1.4167953	-0.019248296	-1.0080102	1.0628878	-0.25225143	-1.1136866	1.0845603	0.16561675	-0.80323802	0.91930329	-0.2186956	-1.1291143	0.8611755	0.25480245
69	0.272	-1.32956	0.085476116	-0.14125007	-0.70116856	0.039272339	0.046109984	-1.3148946	0.22357223	-0.16778662	-0.84518657	0.053714285	0.076522257	-1.2855433	0.21349864	-0.090530106	-0.82166671	0.079559338	-0.0066991272	-1.3480867	0.27352176	-0.11494211	-0.89304162	0.029531093	0.026749077	-0.99103306	0.41397	-0.19226022	-0.79278884	0.44798658	0.1122112	-0.97011643	0.37078243	-0.080299698	-0.78630866	0.45770062	-0.016346677	-0.95461856	0.78801692	-0.20393149	-0.89812291	0.85079005	0.17499619	-0.88486841	0.89839745	-0.1508036	-0.84423539	0.93135191	0.087611121	-1.0653749	0.93078028	-0.0026485121	-0.90808492	1.3977726	-0.16798025	-0.94130123	1.3809513	0.14957685	-1.0038537	1.4178369	-0.018813402	-1.0036602	1.0642365	-0.25193717	-1.1070678	1.0848614	0.16662312	-0.80098697	0.91809477	-0.21928882	-1.1209916	0.86135701	0.25572526
70	0.276	-1.3166528	0.087165921	-0.14199175	-0.70119431	0.039264802	0.046194275	-1.3036804	0.22538235	-0.16793735	-0.84523133	0.053705325	0.076535836	-1.2745174	0.21555443	-0.090629386	-0.82157613	0.079562324	-0.0066555596	-1.3381872	0.27514612	-0.11595205	-0.89306055	0.029570449	0.02675267	-0.97955345	0.41481565	-0.19214079	-0.79052432	0.44794231	0.11218475	-0.95837308	0.37211105	-0.080124585	-0.78386729	0.45746081	-0.016065565	-0.94889045	0.78928763	-0.20365563	-0.8936419	0.85112688	0.17525865	-0.87929028	0.89997224	-0.15098971	-0.83903367	0.93189637	0.088030086	-1.0601697	0.9315682	-0.0026971558	-0.90308382	1.3987976	-0.16778879	-0.9355571	1.3819973	0.14987898	-0.99855657	1.4188684	-0.018397022	-0.99930753	1.0655934	-0.25161139	-1.1004407	1.0851565	0.16765823	-0.79883504	0.91690072	-0.21990182	-1.1127451	0.86154089	0.25666599
71	0.28	-1.3032792	0.088755489	-0.14281218	-0.70123537	0.039265505	0.046285812	-1.2923688	0.22707862	-0.16805767	-0.84528931	0.053695152	0.07653528	-1.2634143	0.21750439	-0.090731457	-0.82150118	0.079570071	-0.0066107265	-1.3282867	0.27645554	-0.11663028	-0.89307902	0.029613416	0.026752211	-0.96808944	0.41576134	-0.1920307	-0.78829852	0.44786823	0.11215797	-0.94682951	0.37346905	-0.079937321	-0.78158681	0.45723316	-0.01577433	-0.94316139	0.79065221	-0.20329365	-0.88922607	0.85150251	0.17551504	-0.87379584	0.90152304	-0.15120958	-0.83391751	0.93248423	0.088475551	-1.0549189	0.93241124	-0.0026612758	-0.89811355	1.39984	-0.16760024	-0.92986989	1.3830775	0.15018374	-0.99328632	1.4198869	-0.017996588	-0.99502104	1.0669624	-0.25129823	-1.0937874	1.0854494	0.16874679	-0.7968224	0.91572004	-0.22054023	-1.1043714	0.86173192	0.25762187
72	0.284	-1.2895692	0.090209867	-0.14367481	-0.70129157	0.039275914	0.046379465	-1.2809885	0.22866675	-0.16816602	-0.8453589	0.053690191	0.076523562	-1.2522202	0.21931247	-0.090831947	-0.82144599	0.079582937	-0.0065676814	-1.31836	0.27745137	-0.11700895	-0.89309567	0.029660717	0.026742592	-0.95663293	0.41679542	-0.19193057	-0.78652747	0.44765723	0.11219766	-0.93547202	0.37487244	-0.079709158	-0.77932165	0.45702892	-0.015530355	-0.93744623	0.79207575	-0.20292062	-0.88487377	0.85191162	0.17575334	-0.8684203	0.90303493	-0.15146154	-0.82888678	0.93312243	0.088953396	-1.0496603	0.93331986	-0.0026291829	-0.8931656	1.4009033	-0.1674058	-0.92423645	1.3841942	0.15048893	-0.98804169	1.4208991	-0.017619119	-0.99083168	1.0683533	-0.25103101	-1.0871292	1.085739	0.16985092	-0.79495781	0.9145547	-0.22120202	-1.0958546	0.86193215	0.25859033
73	0.288	-1.2755451	0.091532392	-0.14455425	-0.70136055	0.039294406	0.046473178	-1.2695524	0.23013028	-0.16825297	-0.84542747	0.053697082	0.076508155	-1.2408645	0.22094488	-0.090911664	-0.82141395	0.079601032	-0.0065266894	-1.3083368	0.27811767	-0.11703748	-0.89311028	0.029712597	0.026722892	-0.94517658	0.41790963	-0.19183207	-0.78551921	0.44730813	0.11225445	-0.92437741	0.37632367	-0.079380172	-0.77706069	0.45684299	-0.015355201	-0.93183528	0.79352163	-0.2026308	-0.88058907	0.85233367	0.17595039	-0.86312003	0.90452397	-0.15171476	-0.82394076	0.93381888	0.089468614	-1.0443738	0.93429686	-0.0025909857	-0.88823852	1.401987	-0.16720668	-0.9186582	1.3853445	0.15079146	-0.9828242	1.4219167	-0.017275021	-0.9867248	1.0697747	-0.25082954	-1.0805635	1.0860157	0.17080148	-0.79319066	0.91341557	-0.22187834	-1.0871498	0.86214434	0.25958504
74	0.292	-1.2611688	0.092750176	-0.14542731	-0.70143891	0.039317352	0.046570837	-1.2580374	0.23144262	-0.16828367	-0.84547994	0.053719485	0.076495508	-1.229293	0.22239212	-0.090967994	-0.82140504	0.079622453	-0.0064855923	-1.2981513	0.27844081	-0.11667396	-0.89312496	0.02976764	0.026694307	-0.93371086	0.41910772	-0.19172388	-0.7850084	0.44697433	0.1123159	-0.91356093	0.37782225	-0.07893019	-0.77490169	0.45664711	-0.015217466	-0.92637328	0.79498132	-0.2024385	-0.8763735	0.85275192	0.17609669	-0.85785217	0.90600258	-0.15194127	-0.81906753	0.93456265	0.090011207	-1.0390021	0.93533478	-0.0024490076	-0.88334808	1.403084	-0.16701217	-0.9131319	1.3865206	0.15108301	-0.97763082	1.4229474	-0.016969082	-0.98267319	1.0712293	-0.25068439	-1.0742711	1.0862657	0.17128817	-0.79143357	0.912314	-0.22255764	-1.0782223	0.86236949	0.26062193
